<svg width="128" height="128" viewBox="0 0 128 128" fill="none" xmlns="http://www.w3.org/2000/svg">
  <defs>
    <linearGradient id="bg" x1="0" y1="0" x2="128" y2="128" gradientUnits="userSpaceOnUse">
      <stop stop-color="#875A7B"/>
      <stop offset="1" stop-color="#5C3A52"/>
    </linearGradient>
  </defs>

  <!-- Fondo redondeado (morado Odoo) -->
  <rect width="128" height="128" rx="28" fill="url(#bg)"/>

  <!-- Burbuja de traducción -->
  <path d="M26 32 h66 a12 12 0 0 1 12 12 v34 a12 12 0 0 1 -12 12 H50 l-16 16 v-16 h-8 a12 12 0 0 1 -12 -12 V44 a12 12 0 0 1 12 -12 Z"
        fill="#FFFFFF"/>

  <!-- Líneas de texto dentro de la burbuja -->
  <rect x="32" y="48" width="52" height="7" rx="3.5" fill="#875A7B"/>
  <rect x="32" y="62" width="40" height="7" rx="3.5" fill="#C9B3C2"/>

  <!-- Insignia de validación (check verde) -->
  <circle cx="96" cy="94" r="22" fill="#28A745" stroke="#FFFFFF" stroke-width="4"/>
  <path d="M86 94 l7 7 l13 -15" fill="none" stroke="#FFFFFF" stroke-width="6"
        stroke-linecap="round" stroke-linejoin="round"/>
</svg>
